<?xml version="1.0" encoding="utf-8"?>
<svg viewBox="124.1 111.6 241 241" xmlns="http://www.w3.org/2000/svg" xmlns:bx="https://boxy-svg.com">
  <defs>
    <linearGradient id="color-21" gradientUnits="userSpaceOnUse" gradientTransform="matrix(1.015957, 0, 0, 1.010638, -31.889191, -33.297802)" bx:pinned="true">
      <title>Base 12</title>
      <stop style="stop-color: rgb(28, 30, 40);"/>
    </linearGradient>
    <linearGradient id="color-0" gradientUnits="userSpaceOnUse" gradientTransform="matrix(1.181124, 0, 0, 1.181124, -40.828235, -46.138544)" bx:pinned="true">
      <title>Base 11</title>
      <stop style="stop-color: rgb(40, 44, 58);"/>
    </linearGradient>
    <linearGradient id="color-11" gradientUnits="userSpaceOnUse" bx:pinned="true">
      <title>Base 10</title>
      <stop style="stop-color: rgb(51, 57, 70);"/>
    </linearGradient>
    <linearGradient id="color-14" gradientUnits="userSpaceOnUse" gradientTransform="matrix(1, 0, 0, 1, 4.000367, -47.082768)" bx:pinned="true">
      <title>Base 09</title>
      <stop style="stop-color: rgb(62, 68, 84);"/>
    </linearGradient>
    <linearGradient id="color-12" gradientUnits="userSpaceOnUse" gradientTransform="matrix(1, 0, 0, 1, 199.191299, -135.661667)" bx:pinned="true">
      <stop style="stop-color: rgb(90, 97, 126);"/>
    </linearGradient>
    <linearGradient id="color-13" gradientUnits="userSpaceOnUse" gradientTransform="matrix(0.37557, 0, 0, 0.37557, 197.640762, 144.034866)" bx:pinned="true">
      <stop style="stop-color: rgb(126, 135, 161);"/>
    </linearGradient>
    <linearGradient id="color-22" gradientUnits="userSpaceOnUse" bx:pinned="true">
      <title>Base 02</title>
      <stop style="stop-color: rgb(242, 243, 244);"/>
    </linearGradient>
    <linearGradient id="color-1" gradientUnits="userSpaceOnUse" gradientTransform="matrix(-0.995188, -0.097981, 0.097981, -0.995188, 170.14293, 462.339769)" bx:pinned="true">
      <title>Purple 200</title>
      <stop style="stop-color: rgb(194, 153, 205);"/>
    </linearGradient>
    <linearGradient id="color-2" gradientUnits="userSpaceOnUse" gradientTransform="matrix(-0.960525, -0.278192, 0.278192, -0.960525, 308.564169, 410.849387)" bx:pinned="true">
      <title>Purple 300</title>
      <stop style="stop-color: rgb(169, 112, 185);"/>
    </linearGradient>
    <linearGradient id="color-3" gradientUnits="userSpaceOnUse" gradientTransform="matrix(-0.898329, -0.439336, 0.439336, -0.898329, 268.025603, 479.77532)" bx:pinned="true">
      <title>Purple 400</title>
      <stop style="stop-color: rgb(150, 81, 170);"/>
    </linearGradient>
    <linearGradient id="color-4" gradientUnits="userSpaceOnUse" gradientTransform="matrix(-0.717529, -0.696529, 0.696529, -0.717529, 213.534694, 463.468438)" bx:pinned="true">
      <title>Purple 500</title>
      <stop style="stop-color: rgb(132, 50, 155);"/>
    </linearGradient>
    <linearGradient id="color-5" gradientUnits="userSpaceOnUse" gradientTransform="matrix(-0.435718, -0.900084, 0.900084, -0.435718, 132.151411, 438.78445)" bx:pinned="true">
      <title>Purple 600</title>
      <stop style="stop-color: rgb(124, 45, 147);"/>
    </linearGradient>
    <linearGradient id="color-6" gradientUnits="userSpaceOnUse" gradientTransform="matrix(-0.069895, -0.997554, 0.997554, -0.069895, 67.677761, 387.579059)" bx:pinned="true">
      <title>Purple 700</title>
      <stop style="stop-color: rgb(113, 38, 137);"/>
    </linearGradient>
    <linearGradient id="color-7" gradientUnits="userSpaceOnUse" bx:pinned="true">
      <title>Purple 800</title>
      <stop style="stop-color: rgb(103, 31, 127);"/>
    </linearGradient>
    <linearGradient id="color-8" gradientUnits="userSpaceOnUse" bx:pinned="true">
      <title>Purple 900</title>
      <stop style="stop-color: rgb(84, 19, 109);"/>
    </linearGradient>
    <linearGradient id="color-10" gradientUnits="userSpaceOnUse" gradientTransform="matrix(1, 0, 0, 1, -0.000023, -0.000059)" bx:pinned="true">
      <title>Blue 200</title>
      <stop style="stop-color: rgb(184, 226, 244);"/>
    </linearGradient>
    <linearGradient id="color-15" gradientUnits="userSpaceOnUse" gradientTransform="matrix(1.000001, 0, 0, 1.000001, 0.000044, 0.00036)" bx:pinned="true">
      <title>Blue 300</title>
      <stop style="stop-color: rgb(156, 214, 239);"/>
    </linearGradient>
    <linearGradient id="color-16" gradientUnits="userSpaceOnUse" gradientTransform="matrix(0.935919, 0.352216, -0.352216, 0.935919, 224.977261, 65.164544)" bx:pinned="true">
      <title>Blue 400</title>
      <stop style="stop-color: rgb(134, 206, 235);"/>
    </linearGradient>
    <linearGradient id="color-9" gradientUnits="userSpaceOnUse" gradientTransform="matrix(0.488075, 0.295034, -0.295034, 0.488075, 307.091172, 204.905559)" bx:pinned="true">
      <title>Blue 500</title>
      <stop style="stop-color: rgb(113, 197, 232);"/>
    </linearGradient>
    <linearGradient id="color-17" gradientUnits="userSpaceOnUse" gradientTransform="matrix(0.735985, 0.641171, -0.641171, 0.735985, -136.360273, -838.661298)" bx:pinned="true">
      <title>Blue 600</title>
      <stop style="stop-color: rgb(105, 191, 229);"/>
    </linearGradient>
    <linearGradient id="color-18" gradientUnits="userSpaceOnUse" gradientTransform="matrix(0.512805, 0.858505, -0.858505, 0.512805, 352.63826, 40.070601)" bx:pinned="true">
      <title>Blue 700</title>
      <stop style="stop-color: rgb(94, 184, 226);"/>
    </linearGradient>
    <linearGradient id="color-19" gradientUnits="userSpaceOnUse" gradientTransform="matrix(0.187911, 0.982186, -0.982186, 0.187911, 424.860368, 84.977871)" bx:pinned="true">
      <title>Blue 800</title>
      <stop style="stop-color: rgb(84, 176, 222);"/>
    </linearGradient>
    <linearGradient id="color-20" gradientUnits="userSpaceOnUse" gradientTransform="matrix(-0.190672, 0.981654, -0.981654, -0.190672, 473.881588, 151.126324)" bx:pinned="true">
      <title>Blue 900</title>
      <stop style="stop-color: rgb(66, 163, 216);"/>
    </linearGradient>
    <linearGradient id="color-23" gradientUnits="userSpaceOnUse" bx:pinned="true">
      <title>Teal 200</title>
      <stop style="stop-color: rgb(128, 203, 196);"/>
    </linearGradient>
    <linearGradient id="color-24" gradientUnits="userSpaceOnUse" bx:pinned="true">
      <title>Teal 300</title>
      <stop style="stop-color: rgb(77, 182, 172);"/>
    </linearGradient>
    <linearGradient id="color-25" gradientUnits="userSpaceOnUse" gradientTransform="matrix(1, 0, 0, 1, -0.000023, -0.000001)" bx:pinned="true">
      <title>Teal 400</title>
      <stop style="stop-color: rgb(38, 166, 154);"/>
    </linearGradient>
    <linearGradient id="color-26" gradientUnits="userSpaceOnUse" gradientTransform="matrix(1, 0, 0, 1, -0.000008, 0.000003)" bx:pinned="true">
      <title>Teal 500</title>
      <stop style="stop-color: rgb(0, 150, 136);"/>
    </linearGradient>
    <linearGradient id="color-27" gradientUnits="userSpaceOnUse" bx:pinned="true">
      <title>Teal 600</title>
      <stop style="stop-color: rgb(0, 137, 123);"/>
    </linearGradient>
    <linearGradient id="color-28" gradientUnits="userSpaceOnUse" bx:pinned="true">
      <title>Teal 700</title>
      <stop style="stop-color: rgb(0, 121, 107);"/>
    </linearGradient>
    <linearGradient id="color-29" gradientUnits="userSpaceOnUse" bx:pinned="true">
      <title>Teal 800</title>
      <stop style="stop-color: rgb(0, 105, 92);"/>
    </linearGradient>
    <linearGradient id="color-30" gradientUnits="userSpaceOnUse" bx:pinned="true">
      <title>Teal 900</title>
      <stop style="stop-color: rgb(0, 77, 64);"/>
    </linearGradient>
  </defs>
  <rect x="112.16" y="100" width="289.84" height="286.778" style="stroke: rgb(0, 0, 0); fill: url('#color-21'); visibility: hidden;"/>
  <ellipse style="fill: url('#color-21');" cx="244.585" cy="231.086" rx="95.545" ry="95.044"/>
  <g transform="matrix(1, 0, 0, 1, -11.87111, -9.742701)">
    <path d="M 191.971 161.641 C 191.483 155.356 222.164 141.136 224.358 141.352 L 268.401 145.688 C 270.594 145.904 270.838 149.046 269.134 155.115 L 268.699 156.66 C 252.928 154.149 237.057 156.048 222.675 161.704 L 191.971 161.641 Z" style="fill: url('#color-26'); transform-box: fill-box; transform-origin: 81.7782% 493.934%;" transform="matrix(0.985623, 0.168957, -0.168957, 0.985623, 0.000001, 0)"/>
    <path d="M 251.241 130.382 C 251.977 123.879 253.403 120.935 255.52 121.548 L 298.029 133.859 C 300.146 134.472 299.778 137.723 296.925 143.613 L 287.996 162.044 C 275.003 156.776 261.475 154.832 248.363 155.819 L 251.241 130.382 Z" style="fill: url('#color-25'); transform-box: fill-box; transform-origin: 14.9428% 296.777%;" transform="matrix(0.985623, 0.168957, -0.168957, 0.985623, 0.000001, 0)"/>
    <path d="M 320.065 162.658 C 324.416 156.593 327.383 154.329 328.964 155.864 L 360.719 186.689 C 362.3 188.225 360.125 191.257 354.192 195.786 L 336.136 209.57 C 330.652 196.518 322.041 184.775 310.805 175.566 L 320.065 162.658 Z" style="fill: url('#color-25'); transform-box: fill-box; transform-origin: -108.738% 159.657%;" transform="matrix(0.985623, 0.168957, -0.168957, 0.985623, -0.000002, 0)"/>
    <path d="M 335.226 192.621 C 341.39 188.413 344.953 187.3 345.913 189.284 L 365.196 229.118 C 366.156 231.102 363.074 233.206 355.95 235.431 L 342.936 239.494 C 342.195 224.219 337.473 209.428 329.384 196.61 L 335.226 192.621 Z" style="fill: url('#color-25'); transform-box: fill-box; transform-origin: -203.978% 104.677%;" transform="matrix(0.985623, 0.168957, -0.168957, 0.985623, -0.000002, 0)"/>
    <path d="M 278.253 155.938 C 280.566 148.7 282.713 145.565 284.693 146.534 L 324.449 165.977 C 326.429 166.945 325.272 170.564 320.979 176.834 L 317.603 181.764 C 309.617 173.674 299.923 167.004 288.77 162.362 C 285.029 160.805 281.242 159.523 277.431 158.511 L 278.253 155.938 Z" style="fill: url('#color-25'); transform-box: fill-box; transform-origin: -44.7174% 269.831%;" transform="matrix(0.985623, 0.168957, -0.168957, 0.985623, 0.000001, 0)"/>
    <path d="M 347.71 234.547 C 354.997 232.931 358.718 233.223 358.872 235.422 L 361.965 279.569 C 362.119 281.768 336.746 312.482 329.305 311.898 L 334.861 280.724 C 335.342 279.683 335.804 278.63 336.249 277.563 C 341.961 263.842 343.945 249.5 342.666 235.665 L 347.71 234.547 Z" style="fill: url('#color-25'); transform-box: fill-box; transform-origin: -224.485% 10.6735%;" transform="matrix(0.985623, 0.168957, -0.168957, 0.985623, -0.000002, 0)"/>
    <path d="M 300 354.778 C 298.846 360.975 260.876 349.188 258.813 348.412 L 217.393 332.824 C 215.401 332.074 215.871 329.157 218.807 324.072 C 219.547 324.404 220.294 324.727 221.048 325.041 C 235.558 331.081 250.763 332.953 265.331 331.205 L 300 354.778 Z" style="fill: url('#color-24');"/>
    <path d="M 230.007 352.049 C 227.613 358.14 225.473 360.615 223.587 359.475 L 185.713 336.58 C 183.827 335.44 185.023 332.395 189.304 327.445 L 201.26 313.618 C 207.197 318.167 213.815 322.03 221.048 325.041 C 226.803 327.436 232.667 329.177 238.557 330.295 L 230.007 352.049 Z" style="fill: url('#color-26');"/>
    <path d="M 171.881 303.06 C 166.109 307.792 162.658 309.212 161.528 307.319 L 138.833 269.325 C 137.703 267.433 140.589 265.067 147.491 262.228 L 167.396 254.04 C 169.116 268.483 174.394 282.3 182.695 294.196 L 171.881 303.06 Z" style="fill: url('#color-26');"/>
    <path d="M 164.992 270.194 C 157.949 272.664 154.22 272.816 153.806 270.652 L 145.49 227.184 C 145.076 225.019 148.597 223.784 156.055 223.48 L 169.271 222.94 C 165.542 238.242 166.091 253.861 170.312 268.328 L 164.992 270.194 Z" style="fill: url('#color-26');"/>
    <path d="M 210.529 320.373 C 206.422 326.765 203.537 329.238 201.875 327.79 L 168.506 298.72 C 166.844 297.272 168.898 294.076 174.667 289.131 L 177.843 286.41 C 185.396 300.059 196.601 311.792 210.785 319.974 L 210.529 320.373 Z" style="fill: url('#color-26');"/>
    <path d="M 163.784 226.467 C 156.328 226.141 152.809 224.896 153.23 222.733 L 161.668 179.289 C 162.088 177.125 156.584 132.663 163.62 135.152 L 188.802 185.42 C 182.578 192.481 177.388 200.666 173.57 209.839 C 171.267 215.374 169.569 221.009 168.447 226.67 L 163.784 226.467 Z" style="fill: url('#color-26');"/>
    <ellipse style="stroke-width: 13px; fill: url('#color-21'); visibility: hidden; transform-box: fill-box; transform-origin: 50% 50%;" cx="225.405" cy="254.722" rx="88.106" ry="88.106" transform="matrix(0.923199, 0.384323, -0.384323, 0.923199, 29.504502, -11.020441)"/>
    <path d="M 257.581 200.798 C 261.65 200.678 264.881 197.447 265.001 193.378 C 265.121 188.949 261.53 185.359 257.102 185.479 C 253.033 185.598 249.801 188.83 249.682 192.899 C 249.562 197.327 253.153 200.918 257.581 200.798 Z M 313.114 246.757 L 310.96 246.757 L 295.76 217.314 C 297.914 217.075 300.068 216.237 301.983 215.4 C 304.856 214.083 305.454 210.253 303.3 207.979 L 303.18 207.859 C 301.864 206.543 299.829 206.064 298.034 206.902 C 296.358 207.62 293.965 208.458 291.691 208.458 C 284.988 208.458 281.996 200.798 257.341 200.798 C 232.687 200.798 229.695 208.458 222.992 208.458 C 220.599 208.458 218.325 207.74 216.649 206.902 C 214.854 206.184 212.819 206.543 211.503 207.859 L 211.383 207.979 C 209.229 210.253 209.827 213.963 212.699 215.4 C 214.614 216.357 216.769 217.075 218.923 217.314 L 203.723 246.757 L 201.569 246.757 C 200.611 246.757 199.893 247.594 200.013 248.552 C 201.33 256.212 211.024 262.076 222.873 262.076 C 234.721 262.076 244.416 256.212 245.732 248.552 C 245.852 247.594 245.134 246.757 244.176 246.757 L 242.022 246.757 L 226.822 217.434 C 236.756 216.596 242.022 211.57 249.682 211.57 L 249.682 269.736 C 245.493 269.736 242.022 273.207 242.022 277.396 L 233.524 277.396 C 230.173 277.396 226.702 280.866 226.702 285.055 L 287.98 285.055 C 287.98 280.866 284.51 277.396 279.483 277.396 L 272.661 277.396 C 272.661 273.207 269.19 269.736 265.001 269.736 L 265.001 211.57 C 272.661 211.57 277.927 216.596 287.861 217.434 L 272.661 246.757 L 270.507 246.757 C 269.549 246.757 268.831 247.594 268.951 248.552 C 270.267 256.212 279.962 262.076 291.81 262.076 C 303.659 262.076 313.353 256.212 314.67 248.552 C 314.79 247.594 314.071 246.757 313.114 246.757 Z M 234.362 246.757 L 211.383 246.757 L 222.873 225.214 L 234.362 246.757 Z M 280.321 246.757 L 291.81 225.214 L 303.3 246.757 L 280.321 246.757 Z" style="fill: url('#color-26');"/>
  </g>
</svg>